<?xml version="1.0" encoding="iso-8859-1"?>
<!-- Generator: Adobe Illustrator 20.1.0, SVG Export Plug-In . SVG Version: 6.00 Build 0)  -->
<svg version="1.1" id="Layer_1" xmlns="http://www.w3.org/2000/svg" xmlns:xlink="http://www.w3.org/1999/xlink" x="0px" y="0px"
	 viewBox="0 0 128 128" style="enable-background:new 0 0 128 128;" xml:space="preserve">
<g style="opacity:0.63;">
	<path style="fill:#0F7470;" d="M89.151,54.272c-0.008-0.008-0.019-0.01-0.027-0.018c-0.008-0.008-0.01-0.019-0.018-0.027
		L68.314,33.435L88.56,13.189c0.034-0.034,0.048-0.078,0.076-0.115c0.032-0.026,0.071-0.039,0.101-0.069
		c0.404-0.416,0.394-1.081-0.023-1.484c-5.835-5.659-13.527-8.775-21.656-8.775c-17.155,0-31.112,13.957-31.112,31.112
		S49.903,64.97,67.058,64.97c8.363,0,16.212-3.272,22.1-9.213C89.565,55.345,89.562,54.68,89.151,54.272z"/>
	<circle style="fill:#F9FCFF;" cx="63.091" cy="15.219" r="2.567"/>
</g>
<g style="opacity:0.63;">
	<path style="fill:#0F7470;" d="M36.644,113.584c0.008-0.008,0.019-0.01,0.027-0.018c0.008-0.008,0.01-0.019,0.018-0.027
		l20.792-20.792L37.235,72.501c-0.034-0.034-0.048-0.078-0.076-0.115c-0.032-0.026-0.071-0.039-0.101-0.069
		c-0.404-0.416-0.394-1.081,0.023-1.484c5.835-5.659,13.527-8.775,21.656-8.775c17.155,0,31.112,13.957,31.112,31.112
		s-13.957,31.112-31.112,31.112c-8.363,0-16.212-3.272-22.1-9.213C36.229,114.657,36.232,113.992,36.644,113.584z"/>
	<circle style="fill:#F9FCFF;" cx="62.704" cy="74.531" r="2.567"/>
</g>
<g>
	<path style="stroke:#231F20;stroke-width:2;stroke-miterlimit:10;" d="M88.714,11.52c-5.835-5.659-13.527-8.775-21.656-8.775
		c-17.155,0-31.112,13.957-31.112,31.112S49.903,64.97,67.058,64.97c0.656,0,1.307-0.026,1.956-0.066
		c-0.001-0.041-0.005-0.082-0.005-0.122c-1.252-0.329-2.316-0.899-3.195-1.644c-0.204,0.012-0.403,0.03-0.614,0.03
		c-1.59,0-2.956-0.343-4.114-0.922c-13.141-2.761-23.04-14.438-23.04-28.388c0-15.997,13.015-29.012,29.012-29.012
		c7.581,0,14.753,2.906,20.195,8.182c0.416,0.404,1.081,0.394,1.484-0.023C89.141,12.588,89.131,11.924,88.714,11.52z"/>
</g>
<g>
	<path style="stroke:#231F20;stroke-width:2;stroke-miterlimit:10;" d="M58.349,62.058c-0.341,0-0.68,0.013-1.02,0.024
		c0.392,0.424,0.717,0.897,1.012,1.391c0.54,0.2,1.041,0.446,1.5,0.737c15.305,0.781,27.52,13.464,27.52,28.96
		c0,15.997-13.015,29.012-29.012,29.012c-7.799,0-15.118-3.051-20.608-8.591c-0.408-0.412-1.073-0.416-1.485-0.007
		c-0.412,0.408-0.415,1.073-0.007,1.485c5.888,5.941,13.736,9.213,22.1,9.213c17.155,0,31.112-13.957,31.112-31.112
		S75.505,62.058,58.349,62.058z"/>
</g>
<g>
</g>
<g>
</g>
<g>
</g>
<g>
</g>
<g>
</g>
<g>
</g>
</svg>
