<?xml version="1.0" encoding="iso-8859-1"?>
<!-- Generator: Adobe Illustrator 20.1.0, SVG Export Plug-In . SVG Version: 6.00 Build 0)  -->
<svg version="1.1" id="Layer_1" xmlns="http://www.w3.org/2000/svg" xmlns:xlink="http://www.w3.org/1999/xlink" x="0px" y="0px"
	 viewBox="0 0 250 94" style="enable-background:new 0 0 250 94;" xml:space="preserve">
<g>
	<g style="opacity:0.63;">
		<path style="fill:#0F7470;" d="M40.43,40.106c-0.006-0.006-0.014-0.007-0.019-0.013c-0.005-0.006-0.007-0.014-0.013-0.019
			L25.625,25.301L40.01,10.916c0.024-0.024,0.034-0.055,0.054-0.082c0.023-0.019,0.051-0.027,0.071-0.049
			c0.287-0.296,0.28-0.768-0.016-1.055c-4.146-4.02-9.611-6.235-15.387-6.235c-12.189,0-22.105,9.916-22.105,22.105
			s9.916,22.105,22.105,22.105c5.942,0,11.519-2.325,15.702-6.546C40.725,40.868,40.722,40.396,40.43,40.106z"/>
		<circle style="fill:#F9FCFF;" cx="21.914" cy="12.358" r="1.824"/>
	</g>
	<g style="opacity:0.63;">
		<path style="fill:#0F7470;" d="M3.123,82.248c0.006-0.006,0.014-0.007,0.019-0.013c0.005-0.006,0.007-0.014,0.013-0.019
			l14.773-14.773L3.543,53.058c-0.024-0.024-0.034-0.055-0.054-0.082c-0.023-0.019-0.051-0.027-0.071-0.049
			c-0.287-0.296-0.28-0.768,0.016-1.055c4.146-4.02,9.611-6.235,15.387-6.235c12.189,0,22.105,9.916,22.105,22.105
			S31.01,89.849,18.821,89.849c-5.942,0-11.519-2.325-15.702-6.546C2.829,83.01,2.831,82.538,3.123,82.248z"/>
		<circle style="fill:#F9FCFF;" cx="21.639" cy="54.5" r="1.824"/>
	</g>
	<g>
		<path style="stroke:#231F20;stroke-width:2;stroke-miterlimit:10;" d="M40.12,9.731c-4.146-4.021-9.611-6.235-15.387-6.235
			c-12.189,0-22.105,9.916-22.105,22.105s9.916,22.105,22.105,22.105c0.466,0,0.929-0.018,1.39-0.047
			c0-0.029-0.003-0.058-0.003-0.087c-0.889-0.234-1.646-0.638-2.27-1.168c-0.145,0.008-0.286,0.021-0.436,0.021
			c-1.13,0-2.101-0.244-2.923-0.655c-9.337-1.962-16.37-10.258-16.37-20.17c0-11.366,9.247-20.613,20.613-20.613
			c5.387,0,10.482,2.065,14.349,5.813c0.295,0.287,0.768,0.28,1.055-0.016C40.423,10.489,40.416,10.017,40.12,9.731z"/>
	</g>
	<g>
		<path style="stroke:#231F20;stroke-width:2;stroke-miterlimit:10;" d="M18.545,45.638c-0.242,0-0.483,0.01-0.725,0.017
			c0.279,0.301,0.51,0.638,0.719,0.988c0.383,0.142,0.739,0.317,1.066,0.524c10.874,0.555,19.553,9.566,19.553,20.576
			c0,11.366-9.247,20.613-20.613,20.613c-5.541,0-10.741-2.168-14.642-6.104c-0.29-0.293-0.762-0.295-1.055-0.005
			c-0.293,0.29-0.295,0.762-0.005,1.055c4.183,4.221,9.76,6.546,15.702,6.546c12.189,0,22.105-9.916,22.105-22.105
			S30.734,45.638,18.545,45.638z"/>
	</g>
	<g>
		<path style="fill:#231F20;" d="M51.79,50.328v0.725c0,2.852,0.331,5.36,0.993,7.523c0.662,2.164,1.604,3.978,2.826,5.442
			c1.222,1.464,2.699,2.565,4.431,3.303c1.731,0.739,3.666,1.108,5.804,1.108c1.91,0,3.564-0.21,4.965-0.63
			c1.4-0.42,2.578-0.891,3.533-1.413c0.955-0.521,1.712-0.993,2.272-1.413c0.559-0.42,0.968-0.63,1.222-0.63
			c0.331,0,0.585,0.128,0.764,0.382l0.993,1.222c-0.611,0.764-1.419,1.477-2.425,2.139c-1.006,0.662-2.126,1.229-3.361,1.699
			c-1.235,0.471-2.558,0.847-3.971,1.127c-1.413,0.28-2.832,0.42-4.258,0.42c-2.597,0-4.965-0.452-7.104-1.356
			c-2.138-0.903-3.971-2.221-5.499-3.953c-1.527-1.731-2.705-3.85-3.532-6.359c-0.828-2.507-1.242-5.378-1.242-8.612
			c0-2.724,0.388-5.238,1.165-7.542c0.776-2.304,1.896-4.29,3.361-5.958c1.464-1.667,3.259-2.972,5.385-3.914
			c2.126-0.941,4.538-1.413,7.237-1.413c2.139,0,4.125,0.369,5.958,1.108c1.833,0.739,3.424,1.814,4.774,3.227
			c1.349,1.413,2.412,3.151,3.189,5.213s1.165,4.43,1.165,7.103c0,0.56-0.077,0.942-0.229,1.146
			c-0.153,0.204-0.408,0.306-0.764,0.306H51.79z M77.148,47.998c0-2.037-0.287-3.863-0.859-5.48
			c-0.573-1.617-1.381-2.985-2.425-4.105c-1.044-1.12-2.285-1.979-3.723-2.578c-1.438-0.598-3.024-0.898-4.755-0.898
			c-1.961,0-3.717,0.306-5.27,0.916c-1.553,0.611-2.896,1.49-4.029,2.635c-1.133,1.146-2.043,2.521-2.731,4.125
			c-0.687,1.604-1.146,3.399-1.375,5.385H77.148z"/>
		<path style="fill:#231F20;" d="M93.799,42.002c0.585-1.553,1.253-2.934,2.005-4.144c0.75-1.209,1.616-2.234,2.597-3.074
			c0.98-0.84,2.075-1.483,3.284-1.928c1.209-0.445,2.552-0.669,4.029-0.669c0.788,0,1.565,0.071,2.329,0.21
			c0.764,0.14,1.438,0.388,2.024,0.745l-0.305,2.521c-0.128,0.407-0.369,0.611-0.726,0.611c-0.305,0-0.77-0.089-1.394-0.267
			c-0.624-0.178-1.445-0.267-2.463-0.267c-1.477,0-2.782,0.223-3.914,0.668c-1.133,0.446-2.152,1.114-3.055,2.005
			c-0.904,0.892-1.693,1.993-2.368,3.304c-0.675,1.311-1.293,2.82-1.853,4.526v24.594h-3.666V32.837h1.947
			c0.432,0,0.738,0.089,0.917,0.267c0.178,0.178,0.292,0.484,0.344,0.916L93.799,42.002z"/>
		<path style="fill:#231F20;" d="M147.836,32.837l-16.04,37.999h-3.208l-16.039-37.999h2.864c0.357,0,0.649,0.096,0.879,0.286
			c0.229,0.191,0.382,0.401,0.458,0.63l12.565,29.979c0.382,1.121,0.687,2.228,0.917,3.323c0.229-1.094,0.547-2.202,0.955-3.323
			l12.603-29.979c0.127-0.28,0.299-0.502,0.516-0.668c0.216-0.165,0.477-0.248,0.783-0.248H147.836z"/>
		<path style="fill:#231F20;" d="M153.833,38.221c1.986-1.986,4.073-3.488,6.263-4.507c2.189-1.018,4.671-1.528,7.447-1.528
			c2.037,0,3.819,0.325,5.347,0.974c1.528,0.649,2.794,1.579,3.8,2.788c1.005,1.21,1.762,2.673,2.272,4.392
			c0.509,1.719,0.764,3.634,0.764,5.747v24.747h-1.451c-0.764,0-1.235-0.356-1.413-1.069l-0.534-4.888
			c-1.044,1.019-2.081,1.935-3.113,2.75c-1.031,0.815-2.107,1.502-3.227,2.062c-1.121,0.56-2.33,0.993-3.628,1.299
			c-1.298,0.306-2.725,0.458-4.277,0.458c-1.298,0-2.559-0.191-3.78-0.573c-1.223-0.382-2.311-0.967-3.266-1.757
			c-0.955-0.789-1.719-1.801-2.291-3.036c-0.573-1.235-0.859-2.717-0.859-4.449c0-1.604,0.458-3.093,1.375-4.468
			c0.917-1.375,2.355-2.571,4.316-3.59c1.96-1.018,4.474-1.833,7.543-2.444c3.067-0.611,6.752-0.967,11.055-1.069v-3.972
			c0-3.513-0.757-6.218-2.272-8.115c-1.515-1.896-3.762-2.845-6.74-2.845c-1.833,0-3.393,0.255-4.678,0.764
			c-1.286,0.51-2.374,1.069-3.265,1.68c-0.892,0.611-1.617,1.172-2.177,1.68c-0.56,0.51-1.031,0.764-1.413,0.764
			c-0.281,0-0.51-0.063-0.687-0.191c-0.178-0.127-0.331-0.293-0.458-0.496L153.833,38.221z M176.173,52.466
			c-3.616,0.128-6.728,0.414-9.337,0.859c-2.611,0.446-4.762,1.05-6.455,1.814c-1.693,0.764-2.947,1.674-3.762,2.731
			c-0.815,1.057-1.222,2.26-1.222,3.609c0,1.273,0.21,2.374,0.63,3.303c0.42,0.93,0.98,1.693,1.681,2.291
			c0.7,0.598,1.508,1.038,2.425,1.318c0.917,0.28,1.872,0.42,2.865,0.42c1.476,0,2.832-0.159,4.067-0.478
			c1.235-0.318,2.38-0.764,3.437-1.337c1.056-0.573,2.043-1.254,2.959-2.043c0.917-0.789,1.82-1.642,2.711-2.559V52.466z"/>
		<path style="fill:#231F20;" d="M195.344,42.002c0.585-1.553,1.253-2.934,2.005-4.144c0.751-1.209,1.617-2.234,2.597-3.074
			c0.98-0.84,2.075-1.483,3.284-1.928c1.209-0.445,2.552-0.669,4.029-0.669c0.789,0,1.566,0.071,2.329,0.21
			c0.764,0.14,1.438,0.388,2.024,0.745l-0.305,2.521c-0.128,0.407-0.369,0.611-0.725,0.611c-0.306,0-0.771-0.089-1.394-0.267
			c-0.624-0.178-1.445-0.267-2.463-0.267c-1.477,0-2.782,0.223-3.914,0.668c-1.133,0.446-2.152,1.114-3.055,2.005
			c-0.904,0.892-1.693,1.993-2.368,3.304c-0.675,1.311-1.293,2.82-1.852,4.526v24.594h-3.666V32.837h1.947
			c0.432,0,0.738,0.089,0.916,0.267c0.178,0.178,0.293,0.484,0.344,0.916L195.344,42.002z"/>
		<path style="fill:#231F20;" d="M218.028,50.328v0.725c0,2.852,0.331,5.36,0.993,7.523c0.662,2.164,1.604,3.978,2.826,5.442
			c1.222,1.464,2.698,2.565,4.43,3.303c1.731,0.739,3.666,1.108,5.805,1.108c1.91,0,3.564-0.21,4.965-0.63
			c1.4-0.42,2.578-0.891,3.532-1.413c0.955-0.521,1.712-0.993,2.272-1.413c0.56-0.42,0.967-0.63,1.222-0.63
			c0.331,0,0.585,0.128,0.764,0.382l0.993,1.222c-0.611,0.764-1.42,1.477-2.425,2.139c-1.006,0.662-2.126,1.229-3.361,1.699
			c-1.235,0.471-2.559,0.847-3.972,1.127c-1.413,0.28-2.833,0.42-4.258,0.42c-2.597,0-4.965-0.452-7.104-1.356
			c-2.138-0.903-3.971-2.221-5.499-3.953c-1.528-1.731-2.706-3.85-3.533-6.359c-0.828-2.507-1.241-5.378-1.241-8.612
			c0-2.724,0.388-5.238,1.165-7.542c0.776-2.304,1.896-4.29,3.361-5.958c1.464-1.667,3.259-2.972,5.385-3.914
			c2.125-0.941,4.538-1.413,7.237-1.413c2.139,0,4.125,0.369,5.958,1.108c1.833,0.739,3.424,1.814,4.774,3.227
			c1.349,1.413,2.412,3.151,3.189,5.213s1.165,4.43,1.165,7.103c0,0.56-0.077,0.942-0.229,1.146
			c-0.153,0.204-0.408,0.306-0.764,0.306H218.028z M243.386,47.998c0-2.037-0.286-3.863-0.859-5.48
			c-0.573-1.617-1.381-2.985-2.425-4.105c-1.044-1.12-2.286-1.979-3.723-2.578c-1.439-0.598-3.023-0.898-4.755-0.898
			c-1.961,0-3.717,0.306-5.27,0.916c-1.553,0.611-2.896,1.49-4.029,2.635c-1.133,1.146-2.043,2.521-2.731,4.125
			c-0.687,1.604-1.146,3.399-1.374,5.385H243.386z"/>
	</g>
</g>
<g>
</g>
<g>
</g>
<g>
</g>
<g>
</g>
<g>
</g>
<g>
</g>
</svg>
